<svg width="22" height="22" viewBox="0 0 22 22" fill="none" xmlns="http://www.w3.org/2000/svg">
<path d="M11.7938 2.75001L20.526 17.875C20.6065 18.0144 20.6488 18.1724 20.6488 18.3333C20.6488 18.4942 20.6065 18.6523 20.526 18.7917C20.4456 18.931 20.3298 19.0467 20.1905 19.1272C20.0512 19.2076 19.8931 19.25 19.7322 19.25H2.26784C2.10693 19.25 1.94886 19.2076 1.80951 19.1272C1.67017 19.0467 1.55445 18.931 1.474 18.7917C1.39355 18.6523 1.3512 18.4942 1.3512 18.3333C1.3512 18.1724 1.39355 18.0144 1.47401 17.875L10.2062 2.75001C10.2866 2.61067 10.4023 2.49496 10.5417 2.41452C10.681 2.33407 10.8391 2.29172 11 2.29172C11.1609 2.29172 11.319 2.33407 11.4583 2.41452C11.5977 2.49496 11.7134 2.61067 11.7938 2.75001ZM3.85551 17.4167H18.1445L11 5.04168L3.85551 17.4167ZM10.0833 14.6667H11.9167V16.5H10.0833V14.6667ZM10.0833 8.25001H11.9167V12.8333H10.0833V8.25001Z" fill="#2D2D2D"/>
</svg>
