<svg width="22" height="22" viewBox="0 0 22 22" fill="none" xmlns="http://www.w3.org/2000/svg">
<path d="M14.0855 3.1515L17.029 8.25H20.1667V10.0833H19.097L18.403 18.4094C18.384 18.6385 18.2795 18.852 18.1104 19.0077C17.9413 19.1634 17.7199 19.2499 17.49 19.25H4.51004C4.28018 19.2499 4.05876 19.1634 3.88966 19.0077C3.72056 18.852 3.61612 18.6385 3.59704 18.4094L2.90221 10.0833H1.83337V8.25H4.97021L7.91454 3.1515L9.50221 4.06817L7.08771 8.25H14.9115L12.4979 4.06817L14.0855 3.1515ZM17.2572 10.0833H4.74196L5.35337 17.4167H16.6458L17.2572 10.0833ZM11.9167 11.9167V15.5833H10.0834V11.9167H11.9167ZM8.25004 11.9167V15.5833H6.41671V11.9167H8.25004ZM15.5834 11.9167V15.5833H13.75V11.9167H15.5834Z" fill="#2D2D2D"/>
</svg>
