<svg width="22" height="22" viewBox="0 0 22 22" fill="none" xmlns="http://www.w3.org/2000/svg">
<path d="M18.3334 15.5833H20.1667V17.4167H1.83337V15.5833H3.66671V9.16668C3.66671 7.22176 4.43932 5.35649 5.81459 3.98123C7.18986 2.60596 9.05512 1.83334 11 1.83334C12.945 1.83334 14.8102 2.60596 16.1855 3.98123C17.5608 5.35649 18.3334 7.22176 18.3334 9.16668V15.5833ZM16.5 15.5833V9.16668C16.5 7.70799 15.9206 6.30904 14.8891 5.27759C13.8577 4.24614 12.4587 3.66668 11 3.66668C9.54135 3.66668 8.1424 4.24614 7.11095 5.27759C6.0795 6.30904 5.50004 7.70799 5.50004 9.16668V15.5833H16.5ZM8.25004 19.25H13.75V21.0833H8.25004V19.25Z" fill="#2D2D2D"/>
</svg>
