<svg width="22" height="22" viewBox="0 0 22 22" fill="none" xmlns="http://www.w3.org/2000/svg">
<path d="M3.66669 12.1513V11H1.83335V9.16667H7.66793L10.2667 7.33333H13.4668L12.4667 4.58333H10.0834V2.75H13.75L14.751 5.5H18.3334V8.25H15.752L17.0867 11.9185C18.0994 11.9507 19.0648 12.3545 19.7989 13.0529C20.5329 13.7512 20.9843 14.6954 21.0669 15.7052C21.1495 16.715 20.8575 17.72 20.2466 18.5283C19.6358 19.3367 18.7488 19.892 17.7548 20.0883C16.7608 20.2846 15.7293 20.1082 14.857 19.5927C13.9847 19.0772 13.3327 18.2587 13.0252 17.2933C12.7177 16.3279 12.7762 15.283 13.1897 14.358C13.6032 13.433 14.3427 12.6926 15.2671 12.2778L14.1341 9.16667H13.266L11.8159 14.5475L11.814 14.5466L11.8159 14.5521L9.1346 15.5274C9.23137 16.2995 9.10781 17.0832 8.77817 17.788C8.44853 18.4928 7.92627 19.09 7.27169 19.5107C6.6171 19.9313 5.85689 20.1583 5.07882 20.1653C4.30076 20.1723 3.53657 19.9591 2.87451 19.5503C2.21244 19.1415 1.6795 18.5538 1.3372 17.8551C0.994913 17.1563 0.857236 16.375 0.940069 15.6013C1.0229 14.8276 1.32287 14.0932 1.80533 13.4827C2.2878 12.8722 2.93309 12.4107 3.66669 12.1513ZM5.50002 11.9414C6.10818 12.0095 6.69357 12.212 7.21376 12.5344C7.73395 12.8567 8.17591 13.2907 8.5076 13.805L10.3015 13.1514L11.3694 9.16667H10.868L8.25002 11H5.50002V11.9414ZM5.04169 18.3333C5.64947 18.3333 6.23237 18.0919 6.66214 17.6621C7.09191 17.2323 7.33335 16.6495 7.33335 16.0417C7.33335 15.4339 7.09191 14.851 6.66214 14.4212C6.23237 13.9914 5.64947 13.75 5.04169 13.75C4.4339 13.75 3.851 13.9914 3.42123 14.4212C2.99146 14.851 2.75002 15.4339 2.75002 16.0417C2.75002 16.6495 2.99146 17.2323 3.42123 17.6621C3.851 18.0919 4.4339 18.3333 5.04169 18.3333ZM16.9584 18.3333C17.5661 18.3333 18.149 18.0919 18.5788 17.6621C19.0086 17.2323 19.25 16.6495 19.25 16.0417C19.25 15.4339 19.0086 14.851 18.5788 14.4212C18.149 13.9914 17.5661 13.75 16.9584 13.75C16.3506 13.75 15.7677 13.9914 15.3379 14.4212C14.9081 14.851 14.6667 15.4339 14.6667 16.0417C14.6667 16.6495 14.9081 17.2323 15.3379 17.6621C15.7677 18.0919 16.3506 18.3333 16.9584 18.3333Z" fill="#2D2D2D"/>
</svg>
