<svg width="22" height="22" viewBox="0 0 22 22" fill="none" xmlns="http://www.w3.org/2000/svg">
<path d="M19.25 16.5H5.5C5.25688 16.5 5.02373 16.5966 4.85182 16.7685C4.67991 16.9404 4.58333 17.1736 4.58333 17.4167C4.58333 17.6598 4.67991 17.893 4.85182 18.0649C5.02373 18.2368 5.25688 18.3333 5.5 18.3333H19.25V20.1667H5.5C4.77065 20.1667 4.07118 19.8769 3.55546 19.3612C3.03973 18.8455 2.75 18.146 2.75 17.4167V3.66668C2.75 3.18045 2.94315 2.71413 3.28697 2.37031C3.63079 2.0265 4.0971 1.83334 4.58333 1.83334H19.25V16.5ZM4.58333 14.7125C4.73183 14.6823 4.88492 14.6667 5.04167 14.6667H17.4167V3.66668H4.58333V14.7125ZM14.6667 8.25001H7.33333V6.41668H14.6667V8.25001Z" fill="#2D2D2D"/>
</svg>
