<svg width="22" height="22" viewBox="0 0 22 22" fill="none" xmlns="http://www.w3.org/2000/svg">
<path d="M9.68183 3.80233C10.5512 3.62066 11.4488 3.62066 12.3182 3.80233L13.8609 2.25867L15.158 3.55575L14.1955 4.51825C15.3288 5.17073 16.2368 6.15256 16.7988 7.33333H19.25V9.16667H17.3525C17.3947 9.46642 17.4167 9.77167 17.4167 10.0833V11H19.25V12.8333H17.4167V13.75C17.4167 14.0617 17.3947 14.3669 17.3525 14.6667H19.25V16.5H16.7988C16.2787 17.5978 15.4577 18.5255 14.4312 19.175C13.4046 19.8246 12.2148 20.1695 11 20.1695C9.78521 20.1695 8.59537 19.8246 7.56884 19.175C6.54231 18.5255 5.72126 17.5978 5.20117 16.5H2.75V14.6667H4.6475C4.60442 14.363 4.58298 14.0567 4.58333 13.75V12.8333H2.75V11H4.58333V10.0833C4.58333 9.77167 4.60533 9.46642 4.6475 9.16667H2.75V7.33333H5.20117C5.76306 6.15222 6.67105 5.17005 7.8045 4.51733L6.842 3.55483L8.14 2.25958L9.68275 3.80325L9.68183 3.80233ZM11 5.5C9.78442 5.5 8.61864 5.98289 7.75909 6.84243C6.89955 7.70197 6.41667 8.86776 6.41667 10.0833V13.75C6.41667 14.9656 6.89955 16.1314 7.75909 16.9909C8.61864 17.8504 9.78442 18.3333 11 18.3333C12.2156 18.3333 13.3814 17.8504 14.2409 16.9909C15.1004 16.1314 15.5833 14.9656 15.5833 13.75V10.0833C15.5833 8.86776 15.1004 7.70197 14.2409 6.84243C13.3814 5.98289 12.2156 5.5 11 5.5ZM8.25 12.8333H13.75V14.6667H8.25V12.8333ZM8.25 9.16667H13.75V11H8.25V9.16667Z" fill="#2D2D2D"/>
</svg>
