<svg width="22" height="22" viewBox="0 0 22 22" fill="none" xmlns="http://www.w3.org/2000/svg">
<path d="M7.33337 5.49999V9.16574H10.0834V5.49999H11.9167V9.16574H14.6667V5.49999H16.5V9.16574L17.4167 9.16666C18.1182 9.16662 18.7931 9.43462 19.3034 9.91583C19.8138 10.397 20.121 11.0551 20.1621 11.7553L20.1667 11.9167V12.8333C20.1667 13.7628 19.8211 14.6117 19.251 15.2579L19.25 19.25C19.25 19.4931 19.1535 19.7263 18.9816 19.8982C18.8096 20.0701 18.5765 20.1667 18.3334 20.1667H3.66671C3.42359 20.1667 3.19043 20.0701 3.01853 19.8982C2.84662 19.7263 2.75004 19.4931 2.75004 19.25V15.2533C2.25749 14.6921 1.9468 13.9947 1.85904 13.2532L1.83887 13.0212L1.83337 12.8333V11.9167C1.83333 11.2152 2.10134 10.5403 2.58255 10.0299C3.06376 9.51957 3.72181 9.21239 4.42204 9.17124L4.58337 9.16666L5.50004 9.16574V5.49999H7.33337ZM8.25187 15.2542L8.20237 15.312C7.6015 15.968 6.7823 16.3828 5.89787 16.4789L5.68704 16.4954L5.50004 16.5C5.18379 16.5 4.87671 16.4597 4.58337 16.3845V18.3333H17.4167V16.3845C16.8166 16.5388 16.1873 16.5387 15.5872 16.3844C14.9872 16.23 14.4359 15.9264 13.9847 15.5017L13.8472 15.3642L13.75 15.257L13.652 15.3652C13.0575 15.9892 12.2618 16.3833 11.4052 16.478L11.1834 16.4963L11 16.5C10.0407 16.5014 9.1195 16.1246 8.43612 15.4513L8.29862 15.3074L8.25187 15.2542ZM17.4167 11H4.58337C4.35885 11 4.14215 11.0824 3.97437 11.2316C3.80658 11.3808 3.69939 11.5864 3.67312 11.8094L3.66671 11.9167V12.8067L3.66946 12.9415C3.69704 13.4083 3.90194 13.8468 4.24222 14.1675C4.5825 14.4882 5.03246 14.6668 5.50004 14.6667C5.93908 14.6674 6.36381 14.5105 6.69691 14.2245C7.03002 13.9385 7.24937 13.5424 7.31504 13.1083L7.32879 12.9681L7.33337 12.8067C7.36637 11.6627 9.00812 11.6215 9.15662 12.6839L9.16579 12.8067L9.16946 12.9415C9.1951 13.4071 9.3972 13.8455 9.73464 14.1673C10.0721 14.4892 10.5195 14.6703 10.9858 14.674C11.4521 14.6776 11.9022 14.5034 12.2446 14.1868C12.587 13.8702 12.7959 13.4351 12.8288 12.9699L12.8398 12.7114C12.9535 11.6517 14.5466 11.6517 14.6603 12.7114L14.6713 12.9699C14.7041 13.4326 14.911 13.8656 15.2503 14.1817C15.5897 14.4979 16.0362 14.6737 16.5 14.6737C16.9638 14.6737 17.4104 14.4979 17.7498 14.1817C18.0891 13.8656 18.296 13.4326 18.3288 12.9699L18.3334 12.8333V11.9167C18.3333 11.6921 18.2509 11.4754 18.1017 11.3076C17.9525 11.1399 17.7469 11.0327 17.524 11.0064L17.4167 11ZM6.41671 0.916656C7.62671 1.71507 7.94112 2.83066 7.74496 3.56399C7.65063 3.91626 7.42022 4.21664 7.10443 4.39903C6.78863 4.58143 6.41331 4.6309 6.06104 4.53657C5.70877 4.44224 5.40839 4.21184 5.226 3.89604C5.0436 3.58025 4.99413 3.20493 5.08846 2.85266C5.36254 1.83516 6.41671 2.29166 6.41671 0.916656ZM11 0.916656C12.21 1.71507 12.5245 2.83066 12.3283 3.56399C12.234 3.91626 12.0036 4.21664 11.6878 4.39903C11.372 4.58143 10.9966 4.6309 10.6444 4.53657C10.2921 4.44224 9.99173 4.21184 9.80933 3.89604C9.62694 3.58025 9.57746 3.20493 9.67179 2.85266C9.94587 1.83516 11 2.29166 11 0.916656ZM15.5834 0.916656C16.7934 1.71507 17.1078 2.83066 16.9116 3.56399C16.8173 3.91626 16.5869 4.21664 16.2711 4.39903C15.9553 4.58143 15.58 4.6309 15.2277 4.53657C14.8754 4.44224 14.5751 4.21184 14.3927 3.89604C14.2103 3.58025 14.1608 3.20493 14.2551 2.85266C14.5292 1.83516 15.5834 2.29166 15.5834 0.916656Z" fill="#2D2D2D"/>
</svg>
