<svg width="22" height="22" viewBox="0 0 22 22" fill="none" xmlns="http://www.w3.org/2000/svg">
<path d="M15.5834 2.75001H19.25C19.4932 2.75001 19.7263 2.84658 19.8982 3.01849C20.0701 3.1904 20.1667 3.42356 20.1667 3.66667V18.3333C20.1667 18.5765 20.0701 18.8096 19.8982 18.9815C19.7263 19.1534 19.4932 19.25 19.25 19.25H2.75004C2.50693 19.25 2.27377 19.1534 2.10186 18.9815C1.92995 18.8096 1.83337 18.5765 1.83337 18.3333V3.66667C1.83337 3.42356 1.92995 3.1904 2.10186 3.01849C2.27377 2.84658 2.50693 2.75001 2.75004 2.75001H6.41671V0.916672H8.25004V2.75001H13.75V0.916672H15.5834V2.75001ZM13.75 4.58334H8.25004V6.41667H6.41671V4.58334H3.66671V8.25001H18.3334V4.58334H15.5834V6.41667H13.75V4.58334ZM18.3334 10.0833H3.66671V17.4167H18.3334V10.0833Z" fill="#2D2D2D"/>
</svg>
