<svg width="22" height="22" viewBox="0 0 22 22" fill="none" xmlns="http://www.w3.org/2000/svg">
<path d="M2.75004 2.75H19.25C19.4932 2.75 19.7263 2.84658 19.8982 3.01849C20.0701 3.19039 20.1667 3.42355 20.1667 3.66667V18.3333C20.1667 18.5764 20.0701 18.8096 19.8982 18.9815C19.7263 19.1534 19.4932 19.25 19.25 19.25H2.75004C2.50693 19.25 2.27377 19.1534 2.10186 18.9815C1.92995 18.8096 1.83337 18.5764 1.83337 18.3333V3.66667C1.83337 3.42355 1.92995 3.19039 2.10186 3.01849C2.27377 2.84658 2.50693 2.75 2.75004 2.75ZM18.3334 10.0833H3.66671V17.4167H18.3334V10.0833ZM18.3334 8.25V4.58333H3.66671V8.25H18.3334ZM12.8334 13.75H16.5V15.5833H12.8334V13.75Z" fill="#2D2D2D"/>
</svg>
