<svg width="22" height="22" viewBox="0 0 22 22" fill="none" xmlns="http://www.w3.org/2000/svg">
<path d="M5.91712 17.4167L1.83337 20.625V3.66667C1.83337 3.42355 1.92995 3.19039 2.10186 3.01849C2.27377 2.84658 2.50693 2.75 2.75004 2.75H19.25C19.4932 2.75 19.7263 2.84658 19.8982 3.01849C20.0701 3.19039 20.1667 3.42355 20.1667 3.66667V16.5C20.1667 16.7431 20.0701 16.9763 19.8982 17.1482C19.7263 17.3201 19.4932 17.4167 19.25 17.4167H5.91712ZM5.28279 15.5833H18.3334V4.58333H3.66671V16.8529L5.28279 15.5833ZM7.33337 9.16667H14.6667V11H7.33337V9.16667Z" fill="#2D2D2D"/>
</svg>
