<svg width="22" height="22" viewBox="0 0 22 22" fill="none" xmlns="http://www.w3.org/2000/svg">
<path d="M3.66667 2.75H18.3333C18.5764 2.75 18.8096 2.84658 18.9815 3.01849C19.1534 3.19039 19.25 3.42355 19.25 3.66667V18.3333C19.25 18.5764 19.1534 18.8096 18.9815 18.9815C18.8096 19.1534 18.5764 19.25 18.3333 19.25H3.66667C3.42355 19.25 3.19039 19.1534 3.01849 18.9815C2.84658 18.8096 2.75 18.5764 2.75 18.3333V3.66667C2.75 3.42355 2.84658 3.19039 3.01849 3.01849C3.19039 2.84658 3.42355 2.75 3.66667 2.75ZM4.58333 4.58333V17.4167H17.4167V4.58333H4.58333ZM10.0861 14.6667L6.19667 10.7773L7.49283 9.48108L10.0861 12.0743L15.2708 6.88875L16.5678 8.18492L10.0861 14.6667Z" fill="#2D2D2D"/>
</svg>
