<svg width="22" height="22" viewBox="0 0 22 22" fill="none" xmlns="http://www.w3.org/2000/svg">
<path d="M6.41667 5.49998V2.74998C6.41667 2.50686 6.51324 2.27371 6.68515 2.1018C6.85706 1.92989 7.09022 1.83331 7.33333 1.83331H18.3333C18.5764 1.83331 18.8096 1.92989 18.9815 2.1018C19.1534 2.27371 19.25 2.50686 19.25 2.74998V15.5833C19.25 15.8264 19.1534 16.0596 18.9815 16.2315C18.8096 16.4034 18.5764 16.5 18.3333 16.5H15.5833V19.25C15.5833 19.756 15.1708 20.1666 14.6603 20.1666H3.67308C3.5522 20.1674 3.43236 20.1442 3.32046 20.0985C3.20856 20.0527 3.1068 19.9853 3.02102 19.9002C2.93524 19.815 2.86714 19.7137 2.82063 19.6021C2.77412 19.4905 2.75012 19.3709 2.75 19.25L2.75275 6.41665C2.75275 5.91065 3.16525 5.49998 3.67583 5.49998H6.41667ZM4.58608 7.33331L4.58333 18.3333H13.75V7.33331H4.58608ZM8.25 5.49998H15.5833V14.6666H17.4167V3.66665H8.25V5.49998Z" fill="#2D2D2D"/>
</svg>
