<svg width="22" height="22" viewBox="0 0 22 22" fill="none" xmlns="http://www.w3.org/2000/svg">
<path d="M9.16671 19.25H2.75004C2.50693 19.25 2.27377 19.1534 2.10186 18.9815C1.92995 18.8096 1.83337 18.5764 1.83337 18.3333V3.66667C1.83337 3.42355 1.92995 3.19039 2.10186 3.01849C2.27377 2.84658 2.50693 2.75 2.75004 2.75H9.16671C9.16671 3.23623 9.35986 3.70255 9.70368 4.04636C10.0475 4.39018 10.5138 4.58333 11 4.58333C11.4863 4.58333 11.9526 4.39018 12.2964 4.04636C12.6402 3.70255 12.8334 3.23623 12.8334 2.75H19.25C19.4932 2.75 19.7263 2.84658 19.8982 3.01849C20.0701 3.19039 20.1667 3.42355 20.1667 3.66667V18.3333C20.1667 18.5764 20.0701 18.8096 19.8982 18.9815C19.7263 19.1534 19.4932 19.25 19.25 19.25H12.8334C12.8334 18.7638 12.6402 18.2975 12.2964 17.9536C11.9526 17.6098 11.4863 17.4167 11 17.4167C10.5138 17.4167 10.0475 17.6098 9.70368 17.9536C9.35986 18.2975 9.16671 18.7638 9.16671 19.25ZM7.82379 17.4167C8.14553 16.859 8.60851 16.396 9.1661 16.0741C9.72369 15.7523 10.3562 15.583 11 15.5833C12.3567 15.5833 13.542 16.3203 14.1763 17.4167H18.3334V4.58333H14.1763C13.8545 5.14098 13.3916 5.60404 12.834 5.92588C12.2764 6.24772 11.6439 6.417 11 6.41667C10.3562 6.417 9.72369 6.24772 9.1661 5.92588C8.60851 5.60404 8.14553 5.14098 7.82379 4.58333H3.66671V17.4167H7.82379ZM5.50004 7.33333H7.33337V14.6667H5.50004V7.33333ZM14.6667 7.33333H16.5V14.6667H14.6667V7.33333Z" fill="#2D2D2D"/>
</svg>
