<svg width="22" height="22" viewBox="0 0 22 22" fill="none" xmlns="http://www.w3.org/2000/svg">
<path d="M14.6667 11.9167V4.58333H5.50004V11.9167C5.50004 12.4029 5.69319 12.8692 6.03701 13.213C6.38083 13.5568 6.84714 13.75 7.33337 13.75H12.8334C13.3196 13.75 13.7859 13.5568 14.1297 13.213C14.4736 12.8692 14.6667 12.4029 14.6667 11.9167ZM4.58337 2.75H18.3334C18.8196 2.75 19.2859 2.94315 19.6297 3.28697C19.9736 3.63079 20.1667 4.0971 20.1667 4.58333V7.33333C20.1667 7.81956 19.9736 8.28588 19.6297 8.6297C19.2859 8.97351 18.8196 9.16667 18.3334 9.16667H16.5V11.9167C16.5 12.8891 16.1137 13.8218 15.4261 14.5094C14.7385 15.197 13.8058 15.5833 12.8334 15.5833H7.33337C6.36091 15.5833 5.42828 15.197 4.74065 14.5094C4.05302 13.8218 3.66671 12.8891 3.66671 11.9167V3.66667C3.66671 3.42355 3.76328 3.19039 3.93519 3.01849C4.1071 2.84658 4.34026 2.75 4.58337 2.75ZM16.5 4.58333V7.33333H18.3334V4.58333H16.5ZM1.83337 17.4167H18.3334V19.25H1.83337V17.4167Z" fill="#2D2D2D"/>
</svg>
