<svg width="22" height="22" viewBox="0 0 22 22" fill="none" xmlns="http://www.w3.org/2000/svg">
<path d="M14.2083 1.83334C14.6812 1.83329 15.1482 1.93777 15.576 2.13929C16.0038 2.34082 16.3817 2.63441 16.6828 2.99906C16.9838 3.3637 17.2006 3.79039 17.3174 4.24858C17.4343 4.70676 17.4485 5.18513 17.3589 5.64943L17.3452 5.70993C18.1427 5.97595 18.8399 6.47919 19.3435 7.1523C19.8472 7.82541 20.1333 8.63629 20.1635 9.47643C20.1937 10.3166 19.9666 11.1459 19.5126 11.8534C19.0585 12.561 18.3993 13.113 17.6229 13.4356L16.6274 19.4003C16.5918 19.6144 16.4815 19.8089 16.316 19.9492C16.1505 20.0895 15.9406 20.1666 15.7236 20.1667H6.27643C6.05945 20.1666 5.84954 20.0895 5.68404 19.9492C5.51854 19.8089 5.40818 19.6144 5.37259 19.4003L4.42934 13.7445C3.79494 13.7085 3.19258 13.454 2.72464 13.0241C2.25671 12.5942 1.95208 12.0155 1.86253 11.3865C1.77299 10.7574 1.90405 10.1167 2.23346 9.57333C2.56286 9.02996 3.07026 8.61742 3.66943 8.40585L3.66668 8.25001C3.6665 7.32185 3.90121 6.40873 4.34896 5.59571C4.79672 4.78268 5.44294 4.09619 6.22745 3.60018C7.01196 3.10416 7.90924 2.81475 8.83573 2.7589C9.76221 2.70305 10.6878 2.88258 11.5262 3.28076C11.8179 2.8358 12.2159 2.47048 12.6842 2.21779C13.1524 1.96509 13.6763 1.83297 14.2083 1.83334ZM8.25001 13.75H6.28834L7.05284 18.3333H8.25001V13.75ZM11.9167 13.75H10.0833V18.3333H11.9167V13.75ZM15.7108 13.75H13.75V18.3333H14.9463L15.7108 13.75ZM9.16668 4.58334C7.20318 4.58334 5.59993 6.12701 5.50459 8.03643L5.50001 8.21701L5.50276 8.37285C5.50924 8.7328 5.4096 9.08669 5.21627 9.39039C5.02293 9.69408 4.74446 9.93413 4.41559 10.0806L4.27809 10.1347C4.07455 10.2072 3.90312 10.3491 3.79398 10.5356C3.68484 10.7221 3.645 10.9411 3.68148 11.154C3.71796 11.367 3.82841 11.5602 3.99339 11.6997C4.15837 11.8393 4.36729 11.9161 4.58334 11.9167H16.0417C16.3805 11.9167 16.7151 11.8415 17.0214 11.6967C17.3277 11.5518 17.5981 11.3409 17.813 11.079C18.028 10.8171 18.1822 10.5108 18.2646 10.1821C18.3469 9.85343 18.3554 9.5106 18.2894 9.17828C18.2233 8.84595 18.0844 8.53241 17.8826 8.26023C17.6808 7.98804 17.4212 7.76399 17.1224 7.6042C16.8236 7.44441 16.4931 7.35285 16.1547 7.33614C15.8163 7.31942 15.4784 7.37795 15.1653 7.50751L15.0049 7.58176C14.5819 7.79972 14.0908 7.84469 13.6353 7.70716C13.1797 7.56963 12.7955 7.26038 12.5638 6.84476L12.4997 6.71918C12.2067 6.08157 11.737 5.54141 11.1462 5.16282C10.5554 4.78424 9.86836 4.58312 9.16668 4.58334ZM14.2083 3.66668C13.9707 3.66663 13.7371 3.72816 13.5304 3.84528C13.3236 3.96239 13.1507 4.13109 13.0286 4.33493C13.5019 4.80095 13.887 5.34877 14.1653 5.95193C14.5723 5.74293 15.0178 5.59993 15.4908 5.53668C15.5711 5.3284 15.5996 5.10369 15.5736 4.88195C15.5477 4.66022 15.4682 4.44813 15.3419 4.26402C15.2157 4.07991 15.0465 3.92931 14.849 3.82524C14.6515 3.72116 14.4316 3.66674 14.2083 3.66668Z" fill="#2D2D2D"/>
</svg>
