<svg width="22" height="22" viewBox="0 0 22 22" fill="none" xmlns="http://www.w3.org/2000/svg">
<path d="M5.99045 2.75H19.25C19.4931 2.75 19.7263 2.84658 19.8982 3.01849C20.0701 3.19039 20.1667 3.42355 20.1667 3.66667V18.3333C20.1667 18.5764 20.0701 18.8096 19.8982 18.9815C19.7263 19.1534 19.4931 19.25 19.25 19.25H5.99045C5.83957 19.25 5.69102 19.2128 5.55798 19.1416C5.42494 19.0705 5.31152 18.9676 5.22778 18.8421L0.339196 11.5088C0.238693 11.3581 0.185059 11.1811 0.185059 11C0.185059 10.8189 0.238693 10.6419 0.339196 10.4913L5.22778 3.15792C5.31152 3.03241 5.42494 2.92951 5.55798 2.85835C5.69102 2.7872 5.83957 2.74998 5.99045 2.75ZM6.48086 4.58333L2.2037 11L6.48086 17.4167H18.3334V4.58333H6.48086ZM11.9167 9.70383L14.509 7.11058L15.8061 8.40767L13.2129 11L15.8061 13.5923L14.509 14.8894L11.9167 12.2962L9.32436 14.8894L8.02728 13.5923L10.6205 11L8.02728 8.40767L9.32436 7.11058L11.9167 9.70383Z" fill="#2D2D2D"/>
</svg>
