<svg width="22" height="22" viewBox="0 0 22 22" fill="none" xmlns="http://www.w3.org/2000/svg">
<path d="M11 20.1667C5.93729 20.1667 1.83337 16.0628 1.83337 11C1.83337 5.93726 5.93729 1.83334 11 1.83334C16.0628 1.83334 20.1667 5.93726 20.1667 11C20.1667 16.0628 16.0628 20.1667 11 20.1667ZM11 18.3333C12.945 18.3333 14.8102 17.5607 16.1855 16.1855C17.5608 14.8102 18.3334 12.9449 18.3334 11C18.3334 9.05509 17.5608 7.18983 16.1855 5.81456C14.8102 4.43929 12.945 3.66668 11 3.66668C9.05512 3.66668 7.18986 4.43929 5.81459 5.81456C4.43932 7.18983 3.66671 9.05509 3.66671 11C3.66671 12.9449 4.43932 14.8102 5.81459 16.1855C7.18986 17.5607 9.05512 18.3333 11 18.3333ZM7.79171 12.8333H12.8334C12.9549 12.8333 13.0715 12.7851 13.1575 12.6991C13.2434 12.6131 13.2917 12.4966 13.2917 12.375C13.2917 12.2535 13.2434 12.1369 13.1575 12.0509C13.0715 11.965 12.9549 11.9167 12.8334 11.9167H9.16671C8.55892 11.9167 7.97603 11.6752 7.54625 11.2455C7.11648 10.8157 6.87504 10.2328 6.87504 9.62501C6.87504 9.01722 7.11648 8.43433 7.54625 8.00456C7.97603 7.57479 8.55892 7.33334 9.16671 7.33334H10.0834V5.50001H11.9167V7.33334H14.2084V9.16668H9.16671C9.04515 9.16668 8.92857 9.21497 8.84262 9.30092C8.75666 9.38687 8.70837 9.50345 8.70837 9.62501C8.70837 9.74657 8.75666 9.86315 8.84262 9.9491C8.92857 10.0351 9.04515 10.0833 9.16671 10.0833H12.8334C13.4412 10.0833 14.0241 10.3248 14.4538 10.7546C14.8836 11.1843 15.125 11.7672 15.125 12.375C15.125 12.9828 14.8836 13.5657 14.4538 13.9955C14.0241 14.4252 13.4412 14.6667 12.8334 14.6667H11.9167V16.5H10.0834V14.6667H7.79171V12.8333Z" fill="#2D2D2D"/>
</svg>
