<?xml version="1.0" encoding="UTF-8" standalone="no"?>
<svg
   xmlns:dc="http://purl.org/dc/elements/1.1/"
   xmlns:cc="http://creativecommons.org/ns#"
   xmlns:rdf="http://www.w3.org/1999/02/22-rdf-syntax-ns#"
   xmlns:svg="http://www.w3.org/2000/svg"
   xmlns="http://www.w3.org/2000/svg"
   xmlns:sodipodi="http://sodipodi.sourceforge.net/DTD/sodipodi-0.dtd"
   xmlns:inkscape="http://www.inkscape.org/namespaces/inkscape"
   preserveAspectRatio="xMinYMin meet"
   viewBox="0 0 99.188188 99.188188"
   id="svg2"
   version="1.1"
   inkscape:version="0.48.1 "
   width="100%"
   height="100%"
   sodipodi:docname="AJAX.svg">
  <metadata
     id="metadata27">
    <rdf:RDF>
      <cc:Work
         rdf:about="">
        <dc:format>image/svg+xml</dc:format>
        <dc:type
           rdf:resource="http://purl.org/dc/dcmitype/StillImage" />
      </cc:Work>
    </rdf:RDF>
  </metadata>
  <defs
     id="defs25" />
  <sodipodi:namedview
     pagecolor="#ffffff"
     bordercolor="#666666"
     borderopacity="1"
     objecttolerance="10"
     gridtolerance="10"
     guidetolerance="10"
     inkscape:pageopacity="0"
     inkscape:pageshadow="2"
     inkscape:window-width="640"
     inkscape:window-height="480"
     id="namedview23"
     showgrid="false"
     fit-margin-top="0"
     fit-margin-left="0"
     fit-margin-right="0"
     fit-margin-bottom="0"
     inkscape:zoom="2.61"
     inkscape:cx="49.721373"
     inkscape:cy="49.466815"
     inkscape:window-x="0"
     inkscape:window-y="0"
     inkscape:window-maximized="0"
     inkscape:current-layer="logo" />
  <desc
     id="desc4">
A representation of the Domino's Pizza trademark logo.
This representation is dedicated to the public domain by the author:
http://creativecommons.org/licenses/publicdomain
</desc>
  <g
     id="logo"
     transform="matrix(0.50911688,-0.50911688,0.50911688,0.50911688,-1.1903153,49.721373)">
    <rect
       x="0"
       y="0"
       width="100"
       height="48.5"
       rx="4"
       style="fill:#de2939"
       id="rect7" />
    <circle
       cx="15.5"
       cy="15.5"
       r="8"
       style="fill:#ffffff"
       id="circle9"
       d="m 23.5,15.5 c 0,4.418278 -3.581722,8 -8,8 -4.418278,0 -8,-3.581722 -8,-8 0,-4.418278 3.581722,-8 8,-8 4.418278,0 8,3.581722 8,8 z"
       sodipodi:cx="15.5"
       sodipodi:cy="15.5"
       sodipodi:rx="8"
       sodipodi:ry="8" />
    <circle
       cx="33"
       cy="33.25"
       r="8"
       style="fill:#ffffff"
       id="circle11"
       d="m 41,33.25 c 0,4.418278 -3.581722,8 -8,8 -4.418278,0 -8,-3.581722 -8,-8 0,-4.418278 3.581722,-8 8,-8 4.418278,0 8,3.581722 8,8 z"
       sodipodi:cx="33"
       sodipodi:cy="33.25"
       sodipodi:rx="8"
       sodipodi:ry="8" />
    <circle
       cx="76"
       cy="24.25"
       r="8"
       style="fill:#ffffff"
       id="circle13"
       d="m 84,24.25 c 0,4.418278 -3.581722,8 -8,8 -4.418278,0 -8,-3.581722 -8,-8 0,-4.418278 3.581722,-8 8,-8 4.418278,0 8,3.581722 8,8 z"
       sodipodi:cx="76"
       sodipodi:cy="24.25"
       sodipodi:rx="8"
       sodipodi:ry="8" />
    <rect
       x="50"
       y="0"
       width="3"
       height="48.5"
       style="fill:#ffffff;stroke:none"
       id="rect15" />
    <rect
       x="0"
       y="51"
       width="100"
       height="48.5"
       rx="4"
       style="fill:#007bad"
       id="rect17" />
    <path
       style="fill:#ffffff;fill-rule:evenodd;stroke:none"
       d="M 5,73 V 55.5 h 6 c 7.5,1 7.5,16 0,17.5 z M 9.5,59.5 v 9 C 13,68 13,60 9.5,59.5 m 13.75,0.75 c 7,0 7,12.75 0,12.75 -7,0 -7,-12.75 0,-12.75 z m 0,3.25 c 1.75,0 1.75,6.25 0,6.25 -1.75,0 -1.75,-6.25 0,-6.25 z M 30,61 h 4.5 v 1.5 a 3.5,3.5 0 0 1 6,0 3.5,3.5 0 0 1 6,0 V 73 h -4.25 v -7.5 a 1,1.5 0 0 0 -1.75,0 V 73 H 36 v -7.5 a 1,1.5 0 0 0 -1.75,0 V 73 H 30 z m 18.5,0 H 53 v 12 h -4.5 z m 2.25,-7 a 2.6,2.6 0 1 0 0.01,0 M 55,61 h 4.25 v 2 a 3.15,3.15 0 0 1 6,1 v 9 H 61 v -7.5 a 1,1.5 0 0 0 -1.75,0 V 73 H 55 z m 17.25,-0.75 c 7,0 7,12.75 0,12.75 -7,0 -7,-12.75 0,-12.75 z m 0,3.25 c 1.75,0 1.75,6.25 0,6.25 -1.75,0 -1.75,-6.25 0,-6.25 z m 8.25,-8 H 85 l -3,7.75 h -3.25 z m 10,8.5 c -4.5,-2 -4,1 -1,1.5 C 93,67 93,73 87.5,73 Q 85,72.75 83.25,71.5 L 84.75,69 C 89,71 89,68 85,67 81,65 84,57 92,61 z M 10,95 H 5 V 77 h 5 a 6,6 0 1 1 0,12 z m 0,-14.5 a 2.6125,2.375 0 1 1 0,4.75 z m 7.75,2 h 4.5 V 95 h -4.5 z M 20,76.2 a 2.6,2.6 0 1 0 0.01,0 M 24,82.5 h 9.5 l -4,8.75 h 3.75 V 95 H 23.5 l 4,-9 H 24 z m 11.25,0 h 9.5 l -4,8.75 H 44.5 V 95 h -10 l 4.25,-9 H 35 z m 17,10.5 a 4,6.3 0 1 1 0,-9 V 82.5 H 57 V 95 h -4.75 z m 0,-3 a 1,2.5 0 1 1 0,-3 z"
       id="path19"
       inkscape:connector-curvature="0" />
  </g>
</svg>
