<svg width="22" height="22" viewBox="0 0 22 22" fill="none" xmlns="http://www.w3.org/2000/svg">
<path d="M20.1667 18.3398C20.165 18.5805 20.0687 18.8109 19.8985 18.9812C19.7284 19.1515 19.4981 19.2481 19.2573 19.25H2.74267C2.50141 19.2498 2.27012 19.1537 2.09962 18.9831C1.92911 18.8124 1.83333 18.581 1.83333 18.3398V17.4167H18.3333V6.69167L11 13.2917L1.83333 5.04167V3.66667C1.83333 3.42355 1.92991 3.19039 2.10182 3.01849C2.27373 2.84658 2.50689 2.75 2.75 2.75H19.25C19.4931 2.75 19.7263 2.84658 19.8982 3.01849C20.0701 3.19039 20.1667 3.42355 20.1667 3.66667V18.3398ZM4.0645 4.58333L11 10.8258L17.9355 4.58333H4.0645ZM0 13.75H7.33333V15.5833H0V13.75ZM0 9.16667H4.58333V11H0V9.16667Z" fill="#2D2D2D"/>
</svg>
