<svg width="22" height="22" viewBox="0 0 22 22" fill="none" xmlns="http://www.w3.org/2000/svg">
<path d="M11 20.1666C5.93729 20.1666 1.83337 16.0627 1.83337 11C1.83337 5.93723 5.93729 1.83331 11 1.83331C16.0628 1.83331 20.1667 5.93723 20.1667 11C20.1667 16.0627 16.0628 20.1666 11 20.1666ZM11 18.3333C12.945 18.3333 14.8102 17.5607 16.1855 16.1854C17.5608 14.8102 18.3334 12.9449 18.3334 11C18.3334 9.05506 17.5608 7.1898 16.1855 5.81453C14.8102 4.43926 12.945 3.66665 11 3.66665C9.05512 3.66665 7.18986 4.43926 5.81459 5.81453C4.43932 7.1898 3.66671 9.05506 3.66671 11C3.66671 12.9449 4.43932 14.8102 5.81459 16.1854C7.18986 17.5607 9.05512 18.3333 11 18.3333ZM10.0834 13.75H11.9167V15.5833H10.0834V13.75ZM10.0834 6.41665H11.9167V11.9166H10.0834V6.41665Z" fill="#2D2D2D"/>
</svg>
