<svg width="22" height="22" viewBox="0 0 22 22" fill="none" xmlns="http://www.w3.org/2000/svg">
<path d="M11.0001 2.75C15.9427 2.75 20.0549 6.30667 20.9175 11C20.0558 15.6933 15.9427 19.25 11.0001 19.25C6.05739 19.25 1.94523 15.6933 1.08264 11C1.94431 6.30667 6.05739 2.75 11.0001 2.75ZM11.0001 17.4167C12.8696 17.4163 14.6836 16.7813 16.1452 15.6156C17.6068 14.4499 18.6294 12.8226 19.0456 11C18.6279 9.17886 17.6046 7.55334 16.1431 6.38919C14.6817 5.22504 12.8685 4.59115 11.0001 4.59115C9.13161 4.59115 7.31844 5.22504 5.85699 6.38919C4.39553 7.55334 3.37226 9.17886 2.95448 11C3.37073 12.8226 4.39334 14.4499 5.85494 15.6156C7.31654 16.7813 9.13055 17.4163 11.0001 17.4167ZM11.0001 15.125C9.90604 15.125 8.85683 14.6904 8.08324 13.9168C7.30966 13.1432 6.87506 12.094 6.87506 11C6.87506 9.90598 7.30966 8.85677 8.08324 8.08319C8.85683 7.3096 9.90604 6.875 11.0001 6.875C12.0941 6.875 13.1433 7.3096 13.9169 8.08319C14.6905 8.85677 15.1251 9.90598 15.1251 11C15.1251 12.094 14.6905 13.1432 13.9169 13.9168C13.1433 14.6904 12.0941 15.125 11.0001 15.125ZM11.0001 13.2917C11.6078 13.2917 12.1907 13.0502 12.6205 12.6205C13.0503 12.1907 13.2917 11.6078 13.2917 11C13.2917 10.3922 13.0503 9.80932 12.6205 9.37955C12.1907 8.94978 11.6078 8.70833 11.0001 8.70833C10.3923 8.70833 9.80938 8.94978 9.37961 9.37955C8.94984 9.80932 8.70839 10.3922 8.70839 11C8.70839 11.6078 8.94984 12.1907 9.37961 12.6205C9.80938 13.0502 10.3923 13.2917 11.0001 13.2917Z" fill="#2D2D2D"/>
</svg>
