<svg width="22" height="22" viewBox="0 0 22 22" fill="none" xmlns="http://www.w3.org/2000/svg">
<path d="M16.3919 17.6889C14.7797 18.7115 12.9092 19.2531 11.0001 19.25C6.05739 19.25 1.94523 15.6933 1.08264 11C1.47684 8.86482 2.5508 6.91432 4.14431 5.4395L1.27606 2.574L2.57314 1.27692L20.7222 19.4269L19.4251 20.7231L16.391 17.6889H16.3919ZM5.44047 6.7375C4.19473 7.87012 3.32693 9.35805 2.95448 11C3.24074 12.2526 3.81547 13.421 4.63289 14.4124C5.45032 15.4037 6.48788 16.1905 7.66298 16.7102C8.83808 17.2299 10.1183 17.4681 11.4016 17.4058C12.685 17.3435 13.9361 16.9825 15.0554 16.3515L13.1964 14.4925C12.405 14.991 11.4677 15.2058 10.5383 15.1016C9.60881 14.9974 8.74235 14.5804 8.081 13.9191C7.41965 13.2577 7.00268 12.3912 6.89849 11.4618C6.7943 10.5323 7.00906 9.59503 7.50756 8.80367L5.44047 6.7375ZM11.8379 13.134L8.86606 10.1622C8.70295 10.5774 8.66456 11.0311 8.75561 11.4678C8.84665 11.9045 9.06316 12.3051 9.37858 12.6206C9.69401 12.936 10.0946 13.1525 10.5313 13.2435C10.968 13.3346 11.4218 13.2962 11.837 13.1331L11.8379 13.134ZM19.0731 15.2093L17.7614 13.8985C18.3742 13.0252 18.8104 12.0406 19.0456 11C18.7965 9.90892 18.3281 8.87988 17.6689 7.97545C17.0098 7.07102 16.1735 6.31008 15.2111 5.73889C14.2487 5.16769 13.1802 4.79817 12.0705 4.65278C10.9608 4.5074 9.83315 4.58918 8.75606 4.89317L7.30956 3.44667C8.45264 2.9975 9.69839 2.75 11.0001 2.75C15.9427 2.75 20.0549 6.30667 20.9175 11C20.6366 12.5269 20.0053 13.9678 19.0731 15.2093ZM10.7461 6.88233C11.3296 6.84627 11.9141 6.93464 12.4608 7.14158C13.0075 7.34852 13.504 7.6693 13.9174 8.08266C14.3308 8.49602 14.6515 8.99252 14.8585 9.53925C15.0654 10.086 15.1538 10.6704 15.1177 11.2539L10.7452 6.88233H10.7461Z" fill="#2D2D2D"/>
</svg>
