<svg width="22" height="22" viewBox="0 0 22 22" fill="none" xmlns="http://www.w3.org/2000/svg">
<path d="M13.75 1.83332C14.3937 1.83324 15.0262 2.00266 15.5837 2.32453C16.1412 2.6464 16.6041 3.10938 16.926 3.66692C17.2478 4.22446 17.4172 4.85691 17.4171 5.50067C17.4169 6.14443 17.2473 6.77682 16.9253 7.33424L21.0833 7.33332V9.16665H19.25V18.3333C19.25 18.5764 19.1534 18.8096 18.9815 18.9815C18.8096 19.1534 18.5764 19.25 18.3333 19.25H3.66663C3.42351 19.25 3.19035 19.1534 3.01844 18.9815C2.84654 18.8096 2.74996 18.5764 2.74996 18.3333V9.16665H0.916626V7.33332L5.07463 7.33424C4.61983 6.54672 4.47392 5.61829 4.66523 4.72923C4.85653 3.84017 5.3714 3.05392 6.10985 2.52316C6.8483 1.99239 7.75765 1.75499 8.66131 1.85704C9.56498 1.95909 10.3985 2.39332 11 3.0754C11.3433 2.68433 11.7663 2.37119 12.2406 2.15697C12.7149 1.94275 13.2295 1.8324 13.75 1.83332ZM10.0833 9.16665H4.58329V17.4167H10.0833V9.16665ZM17.4166 9.16665H11.9166V17.4167H17.4166V9.16665ZM8.24996 3.66665C7.77422 3.66452 7.31629 3.84741 6.9729 4.17667C6.62951 4.50593 6.42756 4.95578 6.40971 5.43118C6.39186 5.90658 6.55951 6.37031 6.87724 6.72439C7.19497 7.07848 7.6379 7.29518 8.11246 7.32874L8.24996 7.33332H10.0833V5.49999C10.0833 5.06187 9.92644 4.63824 9.64108 4.3058C9.35573 3.97337 8.96076 3.75411 8.52771 3.68774L8.38654 3.67124L8.24996 3.66665ZM13.75 3.66665C13.2874 3.66651 12.8419 3.84119 12.5028 4.15569C12.1636 4.47019 11.9559 4.90126 11.9212 5.36249L11.9166 5.49999V7.33332H13.75C14.2125 7.33347 14.658 7.15878 14.9971 6.84428C15.3363 6.52978 15.544 6.09871 15.5787 5.63749L15.5833 5.49999C15.5833 5.01376 15.3901 4.54744 15.0463 4.20362C14.7025 3.85981 14.2362 3.66665 13.75 3.66665Z" fill="#2D2D2D"/>
</svg>
