<svg width="22" height="22" viewBox="0 0 22 22" fill="none" xmlns="http://www.w3.org/2000/svg">
<path d="M11.001 4.15158C13.1542 2.21833 16.4817 2.2825 18.5561 4.36058C20.6296 6.43958 20.7011 9.75058 18.7725 11.9102L10.9991 19.6946L3.22763 11.9102C1.29896 9.75058 1.37138 6.43408 3.44396 4.36058C5.52021 2.28525 8.8413 2.21558 11.001 4.15158ZM17.2581 5.65583C15.8831 4.279 13.6648 4.22308 12.2256 5.51558L11.0019 6.61375L9.77721 5.5165C8.33346 4.22216 6.11971 4.279 4.74105 5.65766C3.37521 7.0235 3.30646 9.20975 4.56505 10.6544L11 17.0995L17.435 10.6553C18.6945 9.20975 18.6258 7.02625 17.2581 5.65583Z" fill="#2D2D2D"/>
</svg>
