<svg width="22" height="22" viewBox="0 0 22 22" fill="none" xmlns="http://www.w3.org/2000/svg">
<path d="M11 1.83331C16.0628 1.83331 20.1667 5.93723 20.1667 11C20.1667 16.0627 16.0628 20.1666 11 20.1666C5.93729 20.1666 1.83337 16.0627 1.83337 11H3.66671C3.66671 15.0498 6.95021 18.3333 11 18.3333C15.0499 18.3333 18.3334 15.0498 18.3334 11C18.3334 6.95015 15.0499 3.66665 11 3.66665C8.47921 3.66665 6.25537 4.93806 4.93629 6.87498H7.33337V8.70831H1.83337V3.20831H3.66671V5.49998C5.33871 3.27248 8.00162 1.83331 11 1.83331ZM11.9167 6.41665V10.6196L14.8895 13.5923L13.5924 14.8894L10.0834 11.3786V6.41665H11.9167Z" fill="#2D2D2D"/>
</svg>
