<svg width="22" height="22" viewBox="0 0 22 22" fill="none" xmlns="http://www.w3.org/2000/svg">
<path d="M19.25 18.3333C19.25 18.5764 19.1534 18.8096 18.9815 18.9815C18.8096 19.1534 18.5764 19.25 18.3333 19.25H3.66667C3.42355 19.25 3.19039 19.1534 3.01849 18.9815C2.84658 18.8096 2.75 18.5764 2.75 18.3333V8.69916C2.7499 8.55947 2.78173 8.42161 2.84306 8.2961C2.90438 8.17059 2.99358 8.06076 3.10383 7.97499L10.4372 2.27149C10.5981 2.14631 10.7961 2.07835 11 2.07835C11.2039 2.07835 11.4019 2.14631 11.5628 2.27149L18.8962 7.97499C19.0064 8.06076 19.0956 8.17059 19.1569 8.2961C19.2183 8.42161 19.2501 8.55947 19.25 8.69916V18.3333ZM17.4167 17.4167V9.14649L11 4.15616L4.58333 9.14649V17.4167H17.4167Z" fill="#2D2D2D"/>
</svg>
