<svg width="22" height="22" viewBox="0 0 22 22" fill="none" xmlns="http://www.w3.org/2000/svg">
<path d="M3.98016 1.29068L20.5086 17.82C20.7665 18.0778 20.9115 18.4276 20.9116 18.7923C20.9117 19.157 20.7669 19.5068 20.509 19.7647C20.2512 20.0227 19.9015 20.1676 19.5368 20.1677C19.1721 20.1678 18.8223 20.023 18.5643 19.7652L14.3513 15.5513L11.11 18.7917L3.98016 11.6618C2.63272 10.3146 1.86258 8.4958 1.83281 6.59061C1.80303 4.68542 2.51598 2.84345 3.82066 1.45476L3.98016 1.29068ZM4.20107 4.10485L4.15432 4.20568C3.70982 5.1884 3.56381 6.28005 3.73444 7.34504C3.90507 8.41003 4.38481 9.40143 5.11407 10.1961L5.27632 10.3657L11.1091 16.1984L13.7023 13.6061L4.20107 4.10485Z" fill="#2D2D2D"/>
</svg>
