<svg width="22" height="22" viewBox="0 0 22 22" fill="none" xmlns="http://www.w3.org/2000/svg">
<path d="M11 21.7507L5.16634 15.917C4.01256 14.7632 3.22684 13.2932 2.90852 11.6929C2.5902 10.0925 2.75358 8.43373 3.37801 6.92624C4.00243 5.41876 5.05986 4.13029 6.41656 3.22377C7.77326 2.31726 9.36831 1.8334 11 1.8334C12.6317 1.8334 14.2267 2.31726 15.5834 3.22377C16.9401 4.13029 17.9976 5.41876 18.622 6.92624C19.2464 8.43373 19.4098 10.0925 19.0915 11.6929C18.7732 13.2932 17.9874 14.7632 16.8337 15.917L11 21.7507ZM15.5375 14.6208C16.4348 13.7234 17.0459 12.5801 17.2934 11.3354C17.541 10.0907 17.4138 8.80055 16.9282 7.62809C16.4425 6.45564 15.62 5.45353 14.5648 4.74849C13.5096 4.04344 12.2691 3.66713 11 3.66713C9.73093 3.66713 8.49036 4.04344 7.43516 4.74849C6.37996 5.45353 5.55752 6.45564 5.07184 7.62809C4.58616 8.80055 4.45905 10.0907 4.70658 11.3354C4.95412 12.5801 5.56518 13.7234 6.4625 14.6208L11 19.1583L15.5375 14.6208ZM11 11.9167C10.5138 11.9167 10.0475 11.7235 9.70364 11.3797C9.35982 11.0359 9.16667 10.5696 9.16667 10.0833C9.16667 9.5971 9.35982 9.13079 9.70364 8.78697C10.0475 8.44315 10.5138 8.25 11 8.25C11.4862 8.25 11.9525 8.44315 12.2964 8.78697C12.6402 9.13079 12.8333 9.5971 12.8333 10.0833C12.8333 10.5696 12.6402 11.0359 12.2964 11.3797C11.9525 11.7235 11.4862 11.9167 11 11.9167Z" fill="#2D2D2D"/>
</svg>
