<svg width="22" height="22" viewBox="0 0 22 22" fill="none" xmlns="http://www.w3.org/2000/svg">
<path d="M4.58329 20.1667C4.34018 20.1667 4.10702 20.0701 3.93511 19.8982C3.7632 19.7263 3.66663 19.4931 3.66663 19.25V2.75001C3.66663 2.5069 3.7632 2.27374 3.93511 2.10183C4.10702 1.92992 4.34018 1.83334 4.58329 1.83334H17.4166C17.6597 1.83334 17.8929 1.92992 18.0648 2.10183C18.2367 2.27374 18.3333 2.5069 18.3333 2.75001V5.50001H16.5V3.66668H5.49996V18.3333H16.5V16.5H18.3333V19.25C18.3333 19.4931 18.2367 19.7263 18.0648 19.8982C17.8929 20.0701 17.6597 20.1667 17.4166 20.1667H4.58329ZM16.5 14.6667V11.9167H10.0833V10.0833H16.5V7.33334L21.0833 11L16.5 14.6667Z" fill="#2D2D2D"/>
</svg>
