<svg width="22" height="22" viewBox="0 0 22 22" fill="none" xmlns="http://www.w3.org/2000/svg">
<path d="M15.6603 14.4943C16.5224 13.5835 17.0986 12.4401 17.3179 11.2053C17.5371 9.97055 17.3897 8.69862 16.8939 7.54672C16.3981 6.39482 15.5756 5.41345 14.5281 4.72391C13.4807 4.03437 12.2541 3.6669 11 3.6669C9.74593 3.6669 8.51935 4.03437 7.47186 4.72391C6.42438 5.41345 5.60191 6.39482 5.10611 7.54672C4.61031 8.69862 4.46291 9.97055 4.68215 11.2053C4.90138 12.4401 5.47763 13.5835 6.33967 14.4943C6.83436 13.7049 7.52158 13.0542 8.33678 12.6033C9.15198 12.1525 10.0684 11.9162 11 11.9167C11.9316 11.9162 12.848 12.1525 13.6632 12.6033C14.4784 13.0542 15.1656 13.7049 15.6603 14.4943ZM7.68625 15.8446L11 19.1574L14.3138 15.8446C14.0166 15.2172 13.5474 14.687 12.9608 14.3158C12.3742 13.9446 11.6942 13.7475 11 13.7475C10.3058 13.7475 9.62583 13.9446 9.03921 14.3158C8.45259 14.687 7.98342 15.2172 7.68625 15.8446ZM11 21.7507L5.16634 15.917C4.01256 14.7632 3.22684 13.2932 2.90852 11.6929C2.5902 10.0925 2.75358 8.43373 3.37801 6.92624C4.00243 5.41876 5.05986 4.13029 6.41656 3.22377C7.77326 2.31726 9.36831 1.8334 11 1.8334C12.6317 1.8334 14.2267 2.31726 15.5834 3.22377C16.9401 4.13029 17.9976 5.41876 18.622 6.92624C19.2464 8.43373 19.4098 10.0925 19.0915 11.6929C18.7732 13.2932 17.9874 14.7632 16.8337 15.917L11 21.7507ZM11 9.16667C11.2431 9.16667 11.4763 9.07009 11.6482 8.89818C11.8201 8.72627 11.9167 8.49311 11.9167 8.25C11.9167 8.00688 11.8201 7.77373 11.6482 7.60182C11.4763 7.42991 11.2431 7.33333 11 7.33333C10.7569 7.33333 10.5237 7.42991 10.3518 7.60182C10.1799 7.77373 10.0833 8.00688 10.0833 8.25C10.0833 8.49311 10.1799 8.72627 10.3518 8.89818C10.5237 9.07009 10.7569 9.16667 11 9.16667ZM11 11C10.2707 11 9.57118 10.7103 9.05546 10.1945C8.53973 9.67882 8.25 8.97934 8.25 8.25C8.25 7.52065 8.53973 6.82118 9.05546 6.30546C9.57118 5.78973 10.2707 5.5 11 5.5C11.7293 5.5 12.4288 5.78973 12.9445 6.30546C13.4603 6.82118 13.75 7.52065 13.75 8.25C13.75 8.97934 13.4603 9.67882 12.9445 10.1945C12.4288 10.7103 11.7293 11 11 11Z" fill="#2D2D2D"/>
</svg>
