<svg width="22" height="22" viewBox="0 0 22 22" fill="none" xmlns="http://www.w3.org/2000/svg">
<path d="M9.14379 8.22708C9.59245 7.77837 9.89799 7.2067 10.0218 6.58435C10.1455 5.96201 10.082 5.31694 9.83913 4.73071C9.59629 4.14448 9.18506 3.64343 8.65746 3.29091C8.12986 2.93838 7.50958 2.75023 6.87504 2.75023C6.24051 2.75023 5.62022 2.93838 5.09262 3.29091C4.56502 3.64343 4.1538 4.14448 3.91096 4.73071C3.66812 5.31694 3.60457 5.96201 3.72833 6.58435C3.8521 7.2067 4.15763 7.77837 4.60629 8.22708L6.87504 10.4958L9.14379 8.22708ZM6.87504 13.0882L3.30921 9.52416C2.60436 8.81898 2.12442 7.92063 1.93008 6.94271C1.73574 5.96479 1.83572 4.9512 2.21738 4.03009C2.59904 3.10899 3.24524 2.32173 4.07429 1.76784C4.90334 1.21396 5.878 0.918335 6.87504 0.918335C7.87209 0.918335 8.84675 1.21396 9.6758 1.76784C10.5048 2.32173 11.151 3.10899 11.5327 4.03009C11.9144 4.9512 12.0144 5.96479 11.82 6.94271C11.6257 7.92063 11.1457 8.81898 10.4409 9.52416L6.87504 13.09V13.0882ZM6.87504 7.33333C6.51037 7.33333 6.16063 7.18846 5.90277 6.9306C5.64491 6.67274 5.50004 6.323 5.50004 5.95833C5.50004 5.59366 5.64491 5.24392 5.90277 4.98606C6.16063 4.72819 6.51037 4.58333 6.87504 4.58333C7.23972 4.58333 7.58945 4.72819 7.84732 4.98606C8.10518 5.24392 8.25004 5.59366 8.25004 5.95833C8.25004 6.323 8.10518 6.67274 7.84732 6.9306C7.58945 7.18846 7.23972 7.33333 6.87504 7.33333ZM15.125 18.7458L17.3938 16.4771C17.8425 16.0284 18.148 15.4567 18.2718 14.8344C18.3955 14.212 18.332 13.5669 18.0891 12.9807C17.8463 12.3945 17.4351 11.8934 16.9075 11.5409C16.3799 11.1884 15.7596 11.0002 15.125 11.0002C14.4905 11.0002 13.8702 11.1884 13.3426 11.5409C12.815 11.8934 12.4038 12.3945 12.161 12.9807C11.9181 13.5669 11.8546 14.212 11.9783 14.8344C12.1021 15.4567 12.4076 16.0284 12.8563 16.4771L15.125 18.7458ZM18.6909 17.7742L15.125 21.3382L11.5592 17.7732C10.8544 17.0681 10.3744 16.1697 10.1801 15.1918C9.98574 14.2139 10.0857 13.2003 10.4674 12.2792C10.849 11.3581 11.4952 10.5708 12.3243 10.0169C13.1533 9.46305 14.128 9.16742 15.125 9.16742C16.1221 9.16742 17.0968 9.46305 17.9258 10.0169C18.7548 10.5708 19.401 11.3581 19.7827 12.2792C20.1644 13.2003 20.2644 14.2139 20.07 15.1918C19.8757 16.1697 19.3957 17.0681 18.6909 17.7732V17.7742ZM15.125 15.5833C14.7604 15.5833 14.4106 15.4385 14.1528 15.1806C13.8949 14.9227 13.75 14.573 13.75 14.2083C13.75 13.8437 13.8949 13.4939 14.1528 13.2361C14.4106 12.9782 14.7604 12.8333 15.125 12.8333C15.4897 12.8333 15.8395 12.9782 16.0973 13.2361C16.3552 13.4939 16.5 13.8437 16.5 14.2083C16.5 14.573 16.3552 14.9227 16.0973 15.1806C15.8395 15.4385 15.4897 15.5833 15.125 15.5833Z" fill="#2D2D2D"/>
</svg>
