<svg width="22" height="22" viewBox="0 0 22 22" fill="none" xmlns="http://www.w3.org/2000/svg">
<path d="M11 2.75C10.2438 2.75 9.625 3.36875 9.625 4.125C9.625 4.88125 10.2438 5.5 11 5.5C11.7563 5.5 12.375 4.88125 12.375 4.125C12.375 3.36875 11.7563 2.75 11 2.75ZM11 16.5C10.2438 16.5 9.625 17.1188 9.625 17.875C9.625 18.6313 10.2438 19.25 11 19.25C11.7563 19.25 12.375 18.6313 12.375 17.875C12.375 17.1188 11.7563 16.5 11 16.5ZM11 9.625C10.2438 9.625 9.625 10.2438 9.625 11C9.625 11.7563 10.2438 12.375 11 12.375C11.7563 12.375 12.375 11.7563 12.375 11C12.375 10.2438 11.7563 9.625 11 9.625Z" fill="#2D2D2D"/>
</svg>
