<svg width="22" height="22" viewBox="0 0 22 22" fill="none" xmlns="http://www.w3.org/2000/svg">
<path d="M19.25 7.33334V19.2436C19.2508 19.364 19.228 19.4833 19.1827 19.5949C19.1374 19.7064 19.0706 19.8079 18.9861 19.8937C18.9015 19.9794 18.801 20.0476 18.6901 20.0944C18.5792 20.1413 18.4601 20.1658 18.3398 20.1667H3.66025C3.419 20.1667 3.18761 20.0709 3.01693 19.9004C2.84625 19.7299 2.75024 19.4986 2.75 19.2573V2.74268C2.75 2.25043 3.16158 1.83334 3.6685 1.83334H13.7472L19.25 7.33334ZM17.4167 8.25001H12.8333V3.66668H4.58333V18.3333H17.4167V8.25001ZM7.33333 6.41668H10.0833V8.25001H7.33333V6.41668ZM7.33333 10.0833H14.6667V11.9167H7.33333V10.0833ZM7.33333 13.75H14.6667V15.5833H7.33333V13.75Z" fill="#2D2D2D"/>
</svg>
