<svg width="22" height="22" viewBox="0 0 22 22" fill="none" xmlns="http://www.w3.org/2000/svg">
<path d="M17.4167 20.1667H4.58337C3.85403 20.1667 3.15456 19.8769 2.63883 19.3612C2.12311 18.8455 1.83337 18.146 1.83337 17.4167V2.75001C1.83337 2.5069 1.92995 2.27374 2.10186 2.10183C2.27377 1.92992 2.50693 1.83334 2.75004 1.83334H15.5834C15.8265 1.83334 16.0596 1.92992 16.2316 2.10183C16.4035 2.27374 16.5 2.5069 16.5 2.75001V13.75H20.1667V17.4167C20.1667 18.146 19.877 18.8455 19.3613 19.3612C18.8455 19.8769 18.1461 20.1667 17.4167 20.1667ZM16.5 15.5833V17.4167C16.5 17.6598 16.5966 17.893 16.7685 18.0649C16.9404 18.2368 17.1736 18.3333 17.4167 18.3333C17.6598 18.3333 17.893 18.2368 18.0649 18.0649C18.2368 17.893 18.3334 17.6598 18.3334 17.4167V15.5833H16.5ZM14.6667 18.3333V3.66668H3.66671V17.4167C3.66671 17.6598 3.76328 17.893 3.93519 18.0649C4.1071 18.2368 4.34026 18.3333 4.58337 18.3333H14.6667ZM5.50004 6.41668H12.8334V8.25001H5.50004V6.41668ZM5.50004 10.0833H12.8334V11.9167H5.50004V10.0833ZM5.50004 13.75H10.0834V15.5833H5.50004V13.75Z" fill="#2D2D2D"/>
</svg>
