<svg width="22" height="22" viewBox="0 0 22 22" fill="none" xmlns="http://www.w3.org/2000/svg">
<path d="M16.5 7.33332H18.3333C18.5764 7.33332 18.8096 7.4299 18.9815 7.60181C19.1534 7.77372 19.25 8.00688 19.25 8.24999V19.25C19.25 19.4931 19.1534 19.7263 18.9815 19.8982C18.8096 20.0701 18.5764 20.1667 18.3333 20.1667H3.66667C3.42355 20.1667 3.19039 20.0701 3.01849 19.8982C2.84658 19.7263 2.75 19.4931 2.75 19.25V8.24999C2.75 8.00688 2.84658 7.77372 3.01849 7.60181C3.19039 7.4299 3.42355 7.33332 3.66667 7.33332H5.5V6.41666C5.5 4.95797 6.07946 3.55902 7.11091 2.52757C8.14236 1.49612 9.54131 0.916656 11 0.916656C12.4587 0.916656 13.8576 1.49612 14.8891 2.52757C15.9205 3.55902 16.5 4.95797 16.5 6.41666V7.33332ZM4.58333 9.16666V18.3333H17.4167V9.16666H4.58333ZM10.0833 12.8333H11.9167V14.6667H10.0833V12.8333ZM6.41667 12.8333H8.25V14.6667H6.41667V12.8333ZM13.75 12.8333H15.5833V14.6667H13.75V12.8333ZM14.6667 7.33332V6.41666C14.6667 5.4442 14.2804 4.51157 13.5927 3.82393C12.9051 3.1363 11.9725 2.74999 11 2.74999C10.0275 2.74999 9.09491 3.1363 8.40728 3.82393C7.71964 4.51157 7.33333 5.4442 7.33333 6.41666V7.33332H14.6667Z" fill="#2D2D2D"/>
</svg>
