<svg width="22" height="22" viewBox="0 0 22 22" fill="none" xmlns="http://www.w3.org/2000/svg">
<path d="M8.5855 9.79183C9.44564 11.3029 10.6971 12.5544 12.2082 13.4145L13.0185 12.2797C13.1488 12.0972 13.3415 11.9688 13.5601 11.9188C13.7787 11.8688 14.008 11.9007 14.2047 12.0083C15.5011 12.7168 16.9329 13.143 18.4058 13.2587C18.6356 13.2769 18.8502 13.3811 19.0067 13.5505C19.1631 13.7198 19.25 13.942 19.25 14.1726V18.2628C19.25 18.4897 19.1659 18.7086 19.0138 18.8771C18.8618 19.0456 18.6526 19.1517 18.4268 19.1748C17.941 19.2253 17.4515 19.25 16.9583 19.25C9.11167 19.25 2.75 12.8883 2.75 5.04167C2.75 4.5485 2.77475 4.059 2.82517 3.57317C2.84832 3.34739 2.9544 3.13823 3.12289 2.98616C3.29138 2.8341 3.51029 2.74995 3.73725 2.75H7.82742C8.05802 2.74997 8.28015 2.83686 8.44954 2.99333C8.61893 3.1498 8.72312 3.36437 8.74133 3.59425C8.85704 5.06714 9.28315 6.49887 9.99167 7.79533C10.0993 7.99202 10.1312 8.22135 10.0812 8.43993C10.0312 8.65851 9.90281 8.85119 9.72033 8.9815L8.5855 9.79183ZM6.27367 9.18958L8.01533 7.94567C7.52105 6.87875 7.18241 5.74644 7.00975 4.58333H4.5925C4.587 4.7355 4.58425 4.88858 4.58425 5.04167C4.58333 11.8763 10.1237 17.4167 16.9583 17.4167C17.1114 17.4167 17.2645 17.4139 17.4167 17.4075V14.9903C16.2536 14.8176 15.1212 14.4789 14.0543 13.9847L12.8104 15.7263C12.3096 15.5317 11.8232 15.302 11.3548 15.0388L11.3016 15.0086C9.50361 13.9853 8.01467 12.4964 6.99142 10.6984L6.96117 10.6453C6.698 10.1768 6.46826 9.69039 6.27367 9.18958Z" fill="#2D2D2D"/>
</svg>
