<?xml version="1.0" encoding="UTF-8" standalone="no"?>
<!-- Created with Inkscape (http://www.inkscape.org/) -->

<svg
   xmlns:dc="http://purl.org/dc/elements/1.1/"
   xmlns:cc="http://creativecommons.org/ns#"
   xmlns:rdf="http://www.w3.org/1999/02/22-rdf-syntax-ns#"
   xmlns:svg="http://www.w3.org/2000/svg"
   xmlns="http://www.w3.org/2000/svg"
   version="1.2"
   width="253.99998"
   height="238.6786"
   viewBox="0 0 203.19999 190.94288"
   id="svg2">
  <defs
     id="defs18" />
  <metadata
     id="metadata4">
Created by potrace 1.10, written by Peter Selinger 2001-2011
<rdf:RDF>
  <cc:Work
     rdf:about="">
    <dc:format>image/svg+xml</dc:format>
    <dc:type
       rdf:resource="http://purl.org/dc/dcmitype/StillImage" />
    <dc:title></dc:title>
  </cc:Work>
</rdf:RDF>
</metadata>
  <g
     transform="matrix(0.04541685,0,0,-0.04541685,-39.962356,199.40024)"
     id="g6"
     style="fill:#ee3a43;fill-opacity:1;stroke:none">
    <path
       d="m 3115,4346 c -55,-7 -122,-18 -150,-24 -50,-10 -135,-28 -270,-56 -90,-18 -283,-77 -360,-109 -33,-13 -71,-28 -85,-32 -76,-24 -312,-143 -405,-204 -150,-100 -172,-116 -235,-170 -286,-245 -482,-543 -577,-876 -44,-155 -54,-234 -53,-435 0,-205 10,-280 44,-325 60,-78 106,-48 106,69 0,218 48,484 126,696 144,392 432,716 806,908 155,79 201,96 378,142 56,15 92,13 88,-5 -2,-10 -78,-49 -195,-99 -323,-140 -421,-201 -586,-363 -230,-225 -362,-445 -448,-747 -41,-143 -53,-307 -46,-621 8,-332 19,-436 58,-555 34,-103 120,-284 171,-359 60,-86 275,-300 364,-361 12,-8 57,-40 100,-70 164,-114 321,-195 449,-229 94,-26 267,-61 300,-61 32,0 52,-25 35,-45 -14,-17 -104,-20 -180,-6 -222,41 -385,94 -565,182 -199,98 -416,288 -593,521 -125,164 -157,193 -186,168 -56,-46 -1,-225 123,-400 111,-156 338,-359 496,-443 330,-176 738,-248 1140,-202 320,38 601,123 890,272 63,32 88,48 188,115 16,11 48,33 73,50 69,47 265,239 331,325 251,329 386,623 434,943 27,178 10,606 -32,835 -45,239 -85,348 -192,522 -72,116 -86,134 -188,236 -225,225 -578,426 -800,457 -194,27 -217,32 -238,51 -47,44 -16,73 71,66 220,-18 396,-74 623,-200 249,-137 443,-287 561,-434 175,-217 309,-585 345,-943 18,-177 6,-569 -20,-695 -56,-266 -93,-380 -182,-559 -167,-335 -414,-585 -847,-855 -56,-36 -77,-63 -68,-88 5,-13 17,-15 59,-10 101,11 238.8903,84.8408 405,206 111.2285,81.12922 111.6745,85.18187 180,143 54.4134,46.04545 301,284 374,378 147,191 227,342 287,542 76,258 108,544 98,883 -4,110 -11,218 -16,240 -5,22 -18,85 -30,140 -67,315 -228,651 -426,890 -263,317 -598,497 -1105,592 -106,19 -498,25 -625,9 z m 461,-814 c 20,-13 33,-47 45,-118 6,-38 20,-91 29,-119 l 17,-50 209,-71 c 216,-73 246,-85 400,-160 112,-54 139,-80 129,-123 -8,-36 -55,-66 -88,-57 -11,3 -197,1 -411,-5 -364,-9 -787,-35 -951,-59 -38,-6 -122,-17 -185,-25 -121,-15 -239,-31 -480,-65 -80,-11 -179,-25 -220,-30 -41,-6 -117,-17 -168,-26 -85,-14 -96,-14 -118,1 -27,17 -26,17 -18,39 19,50 380,255 634,361 63,27 121,52 128,58 7,5 56,74 108,153 65,98 103,145 117,148 12,2 103,21 202,41 99,20 194,38 210,41 17,3 89,18 160,34 176,39 231,46 251,32 z m -658,-865 c 2,-10 -7,-35 -20,-55 -14,-20 -38,-57 -54,-82 -42,-64 -101,-120 -126,-120 -29,0 -58,28 -58,57 0,63 69,144 165,192 65,34 88,35 93,8 z m 1250,-149 c 17,-17 15,-56 -8,-122 -20,-55 -20,-59 -4,-77 9,-11 27,-19 39,-19 30,0 70,-33 60,-49 -13,-21 -87,-51 -128,-51 -22,0 -54,7 -73,16 -31,15 -35,15 -63,-5 -65,-47 -155,-82 -203,-79 -25,1 -52,-3 -60,-9 -63,-51 -151,-73 -302,-74 -56,0 -122,-4 -148,-8 -81,-13 -99,19 -52,93 22,34 150,152 244,225 14,11 23,21 20,24 -3,3 -36,0 -75,-5 -38,-5 -84,-7 -103,-3 -39,7 -72,37 -72,64 0,36 27,51 93,51 34,0 93,7 132,15 38,8 97,15 129,15 72,0 96,-17 96,-67 0,-31 -14,-49 -121,-158 -66,-68 -117,-125 -112,-128 17,-9 169,-16 202,-9 l 35,8 -3,55 c -2,48 2,61 32,104 44,65 136,139 207,167 30,12 89,25 130,28 41,4 80,7 86,8 5,1 15,-3 22,-10 z m -1806,-19 c 61,-24 114,-70 134,-116 8,-18 14,-59 14,-91 0,-116 -89,-225 -229,-280 -106,-42 -145,-48 -177,-27 -14,9 -27,15 -28,13 -2,-2 -12,-28 -24,-58 -144,-369 -184,-438 -234,-393 -18,16 -20,26 -15,93 11,149 113,439 218,618 27,45 49,84 49,85 0,2 -15,1 -34,-1 -27,-3 -37,0 -46,17 -15,28 -7,51 31,87 70,67 238,94 341,53 z m 849,-120 c 26,-26 20,-57 -24,-118 -35,-48 -49,-64 -154,-172 l -72,-74 112,-1 c 62,0 171,-3 242,-5 92,-3 144,0 178,10 88,25 87,-29 -1,-72 -69,-35 -144,-46 -357,-51 -125,-4 -214,-11 -260,-22 -147,-35 -175,-30 -175,31 0,42 41,92 194,235 140,130 150,143 103,129 -45,-13 -141,-11 -172,3 -14,6 -28,23 -32,36 -11,44 21,58 149,67 62,4 133,11 158,15 74,12 89,11 111,-11 z m -481,-45 c 23,-60 3,-145 -74,-307 -31,-65 -56,-125 -56,-135 0,-46 -54,-56 -91,-16 -21,22 -24,35 -24,97 0,65 4,79 39,142 42,76 143,225 161,237 19,14 36,8 45,-18 z m 1150,-394 c 0,-16 -8,-45 -17,-65 -9,-19 -14,-38 -10,-41 3,-4 44,3 90,14 109,28 192,38 201,24 13,-21 -63,-57 -319,-154 -36,-14 -41,-21 -60,-79 -12,-35 -29,-82 -39,-104 -10,-22 -29,-75 -42,-118 -53,-166 -78,-199 -104,-137 -18,43 -7,172 23,290 26,100 24,110 -21,110 -31,0 -74,44 -65,67 13,38 25,43 97,43 l 73,0 47,74 c 58,93 99,130 127,116 12,-7 19,-21 19,-40 z m -893,-126 c 3,-9 -6,-64 -21,-123 -32,-127 -33,-146 -8,-136 9,4 28,10 40,13 37,8 25,-37 -18,-65 -61,-41 -68,-51 -75,-100 -4,-26 -13,-73 -20,-103 -7,-30 -16,-67 -19,-82 -11,-47 -53,-88 -92,-88 -57,0 -77,65 -54,180 4,25 7,46 5,48 -1,1 -47,-12 -101,-31 l -99,-33 -31,-125 c -35,-140 -52,-178 -90,-208 -34,-27 -66,-27 -90,0 -24,27 -24,141 0,212 27,79 23,93 -26,100 -54,7 -94,47 -78,77 14,27 54,46 128,61 54,11 64,17 69,39 8,34 105,220 143,275 57,83 101,108 115,66 8,-25 -26,-165 -59,-250 -15,-36 -26,-69 -26,-74 0,-10 48,-3 132,20 56,15 56,15 79,77 37,99 94,209 124,239 31,30 62,35 72,11 z m 505,-107 c 3,-13 -2,-73 -9,-133 -8,-60 -12,-137 -9,-171 4,-50 2,-62 -11,-67 -26,-10 -75,26 -100,73 -13,25 -25,46 -27,48 -2,3 -26,-19 -52,-47 -85,-91 -181,-123 -234,-79 -21,18 -25,29 -24,78 0,33 10,82 24,120 l 24,64 -23,18 c -28,23 -17,43 30,53 46,9 78,-3 94,-35 17,-32 20,-106 5,-143 -13,-36 -2,-33 63,18 61,47 114,106 155,171 29,46 39,55 68,55 15,0 23,-7 26,-23 z"
       id="path8"
       style="fill:#ee3a43;fill-opacity:1" />
    <path
       d="m 3965,2391 c -39,-17 -115,-91 -115,-111 0,-16 18,-12 86,20 50,23 65,35 70,57 4,15 11,34 17,41 14,18 -10,15 -58,-7 z"
       id="path10"
       style="fill:#ee3a43;fill-opacity:1" />
    <path
       d="m 2185,2362 c -3,-3 -5,-19 -5,-35 0,-16 -20,-89 -45,-163 -51,-150 -52,-158 -27,-145 9,5 46,21 81,37 79,36 155,107 170,159 8,31 7,44 -9,74 -10,21 -31,43 -47,51 -32,15 -110,29 -118,22 z"
       id="path12"
       style="fill:#ee3a43;fill-opacity:1" />
    <path
       d="m 952,1872 c -34,-36 -44,-95 -32,-181 19,-134 50,-193 120,-228 54,-28 91,-29 115,-3 16,17 16,28 6,122 -6,57 -14,128 -17,158 -11,105 -44,149 -118,157 -41,5 -48,3 -74,-25 z"
       id="path14"
       style="fill:#ee3a43;fill-opacity:1" />
  </g>
  <g
     transform="matrix(0.45999734,0,0,0.44841359,-39.962356,-8.6089416)"
     id="text3786"
     style="font-size:13.14170361px;font-style:normal;font-weight:normal;line-height:125%;letter-spacing:0px;word-spacing:0px;fill:#ee3a43;fill-opacity:1;stroke:none;font-family:Sans">
    <path
       d="m 463.92712,404.63824 0,-8.29698 -3.09934,0 0,-1.11011 7.45638,0 0,1.11011 -3.11217,0 0,8.29698 z"
       id="path3791"
       style="fill:#ee3a43;fill-opacity:1" />
    <path
       d="m 469.52903,404.63824 0,-9.40709 1.87372,0 2.22664,6.66068 c 0.20534,0.6203 0.35506,1.08445 0.44918,1.39246 0.10695,-0.34223 0.27378,-0.84488 0.50052,-1.50796 l 2.25231,-6.54518 1.6748,0 0,9.40709 -1.19995,0 0,-7.87347 -2.73358,7.87347 -1.12295,0 -2.72074,-8.00822 0,8.00822 z"
       id="path3793"
       style="fill:#ee3a43;fill-opacity:1" />
  </g>
</svg>
