<svg width="22" height="22" viewBox="0 0 22 22" fill="none" xmlns="http://www.w3.org/2000/svg">
<path d="M5.50004 2.75C8.69921 2.75 11.3511 5.09117 11.837 8.15375C12.914 7.08033 14.4009 6.41667 16.0417 6.41667H20.1667V8.70833C20.1667 11.9992 17.4992 14.6667 14.2084 14.6667H11.9167V19.25H10.0834V11.9167H8.25004C4.70621 11.9167 1.83337 9.04383 1.83337 5.5V2.75H5.50004ZM18.3334 8.25H16.0417C13.7638 8.25 11.9167 10.0971 11.9167 12.375V12.8333H14.2084C16.4863 12.8333 18.3334 10.9862 18.3334 8.70833V8.25ZM5.50004 4.58333H3.66671V5.5C3.66671 8.03092 5.71912 10.0833 8.25004 10.0833H10.0834V9.16667C10.0834 6.63575 8.03096 4.58333 5.50004 4.58333Z" fill="#2D2D2D"/>
</svg>
