<svg width="22" height="22" viewBox="0 0 22 22" fill="none" xmlns="http://www.w3.org/2000/svg">
<path d="M5.50004 17.4167H2.75004C2.50693 17.4167 2.27377 17.3201 2.10186 17.1482C1.92995 16.9763 1.83337 16.7431 1.83337 16.5V7.33333C1.83337 7.09021 1.92995 6.85706 2.10186 6.68515C2.27377 6.51324 2.50693 6.41666 2.75004 6.41666H5.50004V2.74999C5.50004 2.50688 5.59662 2.27372 5.76853 2.10181C5.94043 1.92991 6.17359 1.83333 6.41671 1.83333H15.5834C15.8265 1.83333 16.0596 1.92991 16.2316 2.10181C16.4035 2.27372 16.5 2.50688 16.5 2.74999V6.41666H19.25C19.4932 6.41666 19.7263 6.51324 19.8982 6.68515C20.0701 6.85706 20.1667 7.09021 20.1667 7.33333V16.5C20.1667 16.7431 20.0701 16.9763 19.8982 17.1482C19.7263 17.3201 19.4932 17.4167 19.25 17.4167H16.5V19.25C16.5 19.4931 16.4035 19.7263 16.2316 19.8982C16.0596 20.0701 15.8265 20.1667 15.5834 20.1667H6.41671C6.17359 20.1667 5.94043 20.0701 5.76853 19.8982C5.59662 19.7263 5.50004 19.4931 5.50004 19.25V17.4167ZM5.50004 15.5833V14.6667C5.50004 14.4235 5.59662 14.1904 5.76853 14.0185C5.94043 13.8466 6.17359 13.75 6.41671 13.75H15.5834C15.8265 13.75 16.0596 13.8466 16.2316 14.0185C16.4035 14.1904 16.5 14.4235 16.5 14.6667V15.5833H18.3334V8.25H3.66671V15.5833H5.50004ZM7.33337 3.66666V6.41666H14.6667V3.66666H7.33337ZM7.33337 15.5833V18.3333H14.6667V15.5833H7.33337ZM4.58337 9.16666H7.33337V11H4.58337V9.16666Z" fill="#2D2D2D"/>
</svg>
