<svg width="22" height="22" viewBox="0 0 22 22" fill="none" xmlns="http://www.w3.org/2000/svg">
<path d="M11 20.1667C5.93729 20.1667 1.83337 16.0628 1.83337 11C1.83337 5.93726 5.93729 1.83334 11 1.83334C16.0628 1.83334 20.1667 5.93726 20.1667 11C20.1667 16.0628 16.0628 20.1667 11 20.1667ZM11 18.3333C12.945 18.3333 14.8102 17.5607 16.1855 16.1855C17.5608 14.8102 18.3334 12.9449 18.3334 11C18.3334 9.05509 17.5608 7.18983 16.1855 5.81456C14.8102 4.43929 12.945 3.66668 11 3.66668C9.05512 3.66668 7.18986 4.43929 5.81459 5.81456C4.43932 7.18983 3.66671 9.05509 3.66671 11C3.66671 12.9449 4.43932 14.8102 5.81459 16.1855C7.18986 17.5607 9.05512 18.3333 11 18.3333ZM11 15.5833C9.78447 15.5833 8.61868 15.1005 7.75913 14.2409C6.89959 13.3814 6.41671 12.2156 6.41671 11C6.41671 9.78443 6.89959 8.61865 7.75913 7.7591C8.61868 6.89956 9.78447 6.41668 11 6.41668C12.2156 6.41668 13.3814 6.89956 14.2409 7.7591C15.1005 8.61865 15.5834 9.78443 15.5834 11C15.5834 12.2156 15.1005 13.3814 14.2409 14.2409C13.3814 15.1005 12.2156 15.5833 11 15.5833Z" fill="#2D2D2D"/>
</svg>
