<svg width="22" height="22" viewBox="0 0 22 22" fill="none" xmlns="http://www.w3.org/2000/svg">
<path d="M13.079 11.1338L12.2961 11.9167L18.7779 18.3984L17.4817 19.6946L11 13.2138L4.5182 19.6946L3.22204 18.3984L11.7828 9.83768C11.2438 8.50209 11.8011 6.57893 13.2678 5.11043C15.058 3.32109 17.5248 2.88568 18.7779 4.13876C20.031 5.39184 19.5955 7.85859 17.8062 9.64793C16.3377 11.1164 14.4145 11.6738 13.079 11.1338ZM3.87012 3.49068L10.0274 9.64793L7.43504 12.2412L3.8692 8.67534C3.18181 7.98774 2.79565 7.05528 2.79565 6.08301C2.79565 5.11074 3.18181 4.17828 3.8692 3.49068H3.87012ZM16.5091 8.35084C17.6623 7.19859 17.8997 5.85201 17.4817 5.43401C17.0637 5.01601 15.7171 5.25343 14.5649 6.40568C13.4126 7.55884 13.1752 8.90543 13.5932 9.32343C14.0103 9.74051 15.3569 9.50309 16.5091 8.35084Z" fill="#2D2D2D"/>
</svg>
