<svg width="22" height="22" viewBox="0 0 22 22" fill="none" xmlns="http://www.w3.org/2000/svg">
<path d="M10.0834 1.83333C14.6374 1.83333 18.3334 5.52933 18.3334 10.0833C18.3334 14.6373 14.6374 18.3333 10.0834 18.3333C5.52937 18.3333 1.83337 14.6373 1.83337 10.0833C1.83337 5.52933 5.52937 1.83333 10.0834 1.83333ZM10.0834 16.5C13.6281 16.5 16.5 13.6281 16.5 10.0833C16.5 6.53766 13.6281 3.66666 10.0834 3.66666C6.53771 3.66666 3.66671 6.53766 3.66671 10.0833C3.66671 13.6281 6.53771 16.5 10.0834 16.5ZM17.8613 16.5651L20.4545 19.1574L19.1575 20.4545L16.5651 17.8612L17.8613 16.5651Z" fill="#2D2D2D"/>
</svg>
