<svg width="22" height="22" viewBox="0 0 22 22" fill="none" xmlns="http://www.w3.org/2000/svg">
<path d="M10.0833 1.83334L16.7732 3.92334C16.9597 3.98159 17.1228 4.09795 17.2386 4.25544C17.3544 4.41293 17.4168 4.6033 17.4167 4.79876V6.41668H19.25C19.4931 6.41668 19.7263 6.51325 19.8982 6.68516C20.0701 6.85707 20.1667 7.09023 20.1667 7.33334V14.6667C20.1667 14.9098 20.0701 15.143 19.8982 15.3149C19.7263 15.4868 19.4931 15.5833 19.25 15.5833L16.2983 15.5843C15.9436 16.0518 15.5128 16.4643 15.015 16.8034L10.0833 20.1667L5.15167 16.8043C4.41148 16.2997 3.80577 15.6218 3.38721 14.8298C2.96865 14.0377 2.74991 13.1554 2.75 12.2595V4.79876C2.75011 4.60346 2.8126 4.41329 2.92835 4.25599C3.0441 4.09868 3.20707 3.98246 3.3935 3.92426L10.0833 1.83334ZM10.0833 3.75284L4.58333 5.47251V12.2595C4.5832 12.8207 4.7119 13.3745 4.9595 13.8781C5.20711 14.3817 5.56701 14.8218 6.0115 15.1644L6.18475 15.2891L10.0833 17.9483L13.5502 15.5833H9.16667C8.92355 15.5833 8.69039 15.4868 8.51849 15.3149C8.34658 15.143 8.25 14.9098 8.25 14.6667V7.33334C8.25 7.09023 8.34658 6.85707 8.51849 6.68516C8.69039 6.51325 8.92355 6.41668 9.16667 6.41668H15.5833V5.47251L10.0833 3.75284ZM10.0833 11V13.75H18.3333V11H10.0833ZM10.0833 9.16668H18.3333V8.25001H10.0833V9.16668Z" fill="#2D2D2D"/>
</svg>
