<svg width="22" height="22" viewBox="0 0 22 22" fill="none" xmlns="http://www.w3.org/2000/svg">
<path d="M3.42925 1.29067L20.3527 10.5985C20.4246 10.6381 20.4845 10.6962 20.5263 10.7668C20.568 10.8374 20.59 10.918 20.59 11C20.59 11.082 20.568 11.1626 20.5263 11.2332C20.4845 11.3038 20.4246 11.3619 20.3527 11.4015L3.42925 20.7093C3.35947 20.7477 3.28089 20.7673 3.20125 20.766C3.12161 20.7648 3.04367 20.7428 2.97511 20.7023C2.90655 20.6618 2.84973 20.6041 2.81026 20.5349C2.77078 20.4657 2.75001 20.3875 2.75 20.3078V1.69217C2.75001 1.61253 2.77078 1.53426 2.81026 1.46509C2.84973 1.39591 2.90655 1.33822 2.97511 1.29769C3.04367 1.25716 3.12161 1.2352 3.20125 1.23397C3.28089 1.23274 3.35947 1.25228 3.42925 1.29067ZM4.58333 11.9167V17.9823L17.2792 11L4.58333 4.01776V10.0833H9.16667V11.9167H4.58333Z" fill="#2D2D2D"/>
</svg>
