<svg width="22" height="22" viewBox="0 0 22 22" fill="none" xmlns="http://www.w3.org/2000/svg">
<path d="M12.0267 15.6044L8.17757 13.5052C7.67505 14.0425 7.02255 14.4161 6.30489 14.5776C5.58722 14.7392 4.83756 14.6811 4.15333 14.4109C3.4691 14.1408 2.88195 13.6711 2.46817 13.0629C2.0544 12.4547 1.83313 11.7361 1.83313 11.0004C1.83313 10.2648 2.0544 9.54621 2.46817 8.93799C2.88195 8.32978 3.4691 7.86008 4.15333 7.58995C4.83756 7.31981 5.58722 7.26173 6.30489 7.42325C7.02255 7.58477 7.67505 7.95843 8.17757 8.49565L12.0276 6.39648C11.809 5.53122 11.9135 4.61594 12.3215 3.82221C12.7295 3.02848 13.4129 2.4108 14.2438 2.08494C15.0746 1.75909 15.9957 1.74743 16.8346 2.05216C17.6734 2.35688 18.3722 2.95707 18.8002 3.74022C19.2281 4.52337 19.3558 5.43571 19.1591 6.30623C18.9625 7.17675 18.4552 7.94568 17.7322 8.46889C17.0092 8.9921 16.1202 9.23367 15.2319 9.14831C14.3435 9.06295 13.5168 8.65653 12.9067 8.00523L9.05665 10.1044C9.20442 10.6923 9.20442 11.3077 9.05665 11.8956L12.9057 13.9947C13.5159 13.3434 14.3426 12.937 15.231 12.8517C16.1193 12.7663 17.0083 13.0079 17.7313 13.5311C18.4543 14.0543 18.9616 14.8232 19.1582 15.6937C19.3548 16.5643 19.2272 17.4766 18.7993 18.2597C18.3713 19.0429 17.6724 19.6431 16.8336 19.9478C15.9948 20.2525 15.0737 20.2409 14.2428 19.915C13.412 19.5892 12.7286 18.9715 12.3206 18.1778C11.9126 17.384 11.8081 16.4687 12.0267 15.6035V15.6044ZM5.49999 12.8333C5.98622 12.8333 6.45253 12.6402 6.79635 12.2963C7.14016 11.9525 7.33332 11.4862 7.33332 11C7.33332 10.5138 7.14016 10.0474 6.79635 9.70362C6.45253 9.3598 5.98622 9.16665 5.49999 9.16665C5.01376 9.16665 4.54744 9.3598 4.20362 9.70362C3.85981 10.0474 3.66665 10.5138 3.66665 11C3.66665 11.4862 3.85981 11.9525 4.20362 12.2963C4.54744 12.6402 5.01376 12.8333 5.49999 12.8333ZM15.5833 7.33332C16.0696 7.33332 16.5359 7.14016 16.8797 6.79635C17.2235 6.45253 17.4167 5.98621 17.4167 5.49998C17.4167 5.01375 17.2235 4.54744 16.8797 4.20362C16.5359 3.8598 16.0696 3.66665 15.5833 3.66665C15.0971 3.66665 14.6308 3.8598 14.287 4.20362C13.9431 4.54744 13.75 5.01375 13.75 5.49998C13.75 5.98621 13.9431 6.45253 14.287 6.79635C14.6308 7.14016 15.0971 7.33332 15.5833 7.33332ZM15.5833 18.3333C16.0696 18.3333 16.5359 18.1402 16.8797 17.7963C17.2235 17.4525 17.4167 16.9862 17.4167 16.5C17.4167 16.0138 17.2235 15.5474 16.8797 15.2036C16.5359 14.8598 16.0696 14.6666 15.5833 14.6666C15.0971 14.6666 14.6308 14.8598 14.287 15.2036C13.9431 15.5474 13.75 16.0138 13.75 16.5C13.75 16.9862 13.9431 17.4525 14.287 17.7963C14.6308 18.1402 15.0971 18.3333 15.5833 18.3333Z" fill="#2D2D2D"/>
</svg>
