<svg width="22" height="22" viewBox="0 0 22 22" fill="none" xmlns="http://www.w3.org/2000/svg">
<path d="M15.5834 5.50001H20.1667V7.33334H18.3334V19.25C18.3334 19.4931 18.2368 19.7263 18.0649 19.8982C17.893 20.0701 17.6598 20.1667 17.4167 20.1667H4.58337C4.34026 20.1667 4.1071 20.0701 3.93519 19.8982C3.76328 19.7263 3.66671 19.4931 3.66671 19.25V7.33334H1.83337V5.50001H6.41671V2.75001C6.41671 2.5069 6.51328 2.27374 6.68519 2.10183C6.8571 1.92992 7.09026 1.83334 7.33337 1.83334H14.6667C14.9098 1.83334 15.143 1.92992 15.3149 2.10183C15.4868 2.27374 15.5834 2.5069 15.5834 2.75001V5.50001ZM16.5 7.33334H5.50004V18.3333H16.5V7.33334ZM12.2962 12.8333L13.9169 14.454L12.6207 15.7502L11 14.1295L9.37937 15.7502L8.08321 14.454L9.70387 12.8333L8.08321 11.2127L9.37937 9.91651L11 11.5372L12.6207 9.91651L13.9169 11.2127L12.2962 12.8333ZM8.25004 3.66668V5.50001H13.75V3.66668H8.25004Z" fill="#2D2D2D"/>
</svg>
