<svg width="22" height="22" viewBox="0 0 22 22" fill="none" xmlns="http://www.w3.org/2000/svg">
<path d="M18.3333 20.1667H16.5V18.3333C16.5 17.604 16.2102 16.9045 15.6945 16.3888C15.1788 15.8731 14.4793 15.5833 13.75 15.5833H8.24996C7.52061 15.5833 6.82114 15.8731 6.30542 16.3888C5.78969 16.9045 5.49996 17.604 5.49996 18.3333V20.1667H3.66663V18.3333C3.66663 17.1178 4.14951 15.952 5.00905 15.0924C5.86859 14.2329 7.03438 13.75 8.24996 13.75H13.75C14.9655 13.75 16.1313 14.2329 16.9909 15.0924C17.8504 15.952 18.3333 17.1178 18.3333 18.3333V20.1667ZM11 11.9167C10.2777 11.9167 9.56249 11.7744 8.8952 11.498C8.22791 11.2216 7.62159 10.8165 7.11087 10.3058C6.60015 9.79504 6.19502 9.18872 5.91862 8.52143C5.64222 7.85414 5.49996 7.13894 5.49996 6.41667C5.49996 5.6944 5.64222 4.9792 5.91862 4.31191C6.19502 3.64462 6.60015 3.03831 7.11087 2.52758C7.62159 2.01686 8.22791 1.61174 8.8952 1.33533C9.56249 1.05893 10.2777 0.916672 11 0.916672C12.4586 0.916672 13.8576 1.49613 14.889 2.52758C15.9205 3.55903 16.5 4.95798 16.5 6.41667C16.5 7.87536 15.9205 9.27431 14.889 10.3058C13.8576 11.3372 12.4586 11.9167 11 11.9167ZM11 10.0833C11.9724 10.0833 12.9051 9.69703 13.5927 9.0094C14.2803 8.32176 14.6666 7.38913 14.6666 6.41667C14.6666 5.44421 14.2803 4.51158 13.5927 3.82395C12.9051 3.13631 11.9724 2.75001 11 2.75001C10.0275 2.75001 9.09487 3.13631 8.40723 3.82395C7.7196 4.51158 7.33329 5.44421 7.33329 6.41667C7.33329 7.38913 7.7196 8.32176 8.40723 9.0094C9.09487 9.69703 10.0275 10.0833 11 10.0833Z" fill="#2D2D2D"/>
</svg>
