<svg width="22" height="22" viewBox="0 0 22 22" fill="none" xmlns="http://www.w3.org/2000/svg">
<path d="M20.1667 6.41667H21.0834V15.5833H20.1667V18.3333C20.1667 18.5764 20.0701 18.8096 19.8982 18.9815C19.7263 19.1534 19.4932 19.25 19.25 19.25H2.75004C2.50693 19.25 2.27377 19.1534 2.10186 18.9815C1.92995 18.8096 1.83337 18.5764 1.83337 18.3333V3.66667C1.83337 3.42355 1.92995 3.19039 2.10186 3.01849C2.27377 2.84658 2.50693 2.75 2.75004 2.75H19.25C19.4932 2.75 19.7263 2.84658 19.8982 3.01849C20.0701 3.19039 20.1667 3.42355 20.1667 3.66667V6.41667ZM18.3334 15.5833H12.8334C11.6178 15.5833 10.452 15.1004 9.59247 14.2409C8.73293 13.3814 8.25004 12.2156 8.25004 11C8.25004 9.78442 8.73293 8.61864 9.59247 7.75909C10.452 6.89955 11.6178 6.41667 12.8334 6.41667H18.3334V4.58333H3.66671V17.4167H18.3334V15.5833ZM19.25 13.75V8.25H12.8334C12.104 8.25 11.4046 8.53973 10.8888 9.05546C10.3731 9.57118 10.0834 10.2707 10.0834 11C10.0834 11.7293 10.3731 12.4288 10.8888 12.9445C11.4046 13.4603 12.104 13.75 12.8334 13.75H19.25ZM12.8334 10.0833H15.5834V11.9167H12.8334V10.0833Z" fill="#2D2D2D"/>
</svg>
